<svg xmlns="http://www.w3.org/2000/svg" width="798.323" height="260.075" version="1" shape-rendering="geometricPrecision" text-rendering="geometricPrecision" image-rendering="optimizeQuality" fill-rule="evenodd" clip-rule="evenodd" viewBox="0 0 15639 5095"><g id="Camada_x0020_1"><path fill="#017046" d="M3163 1008c10 25 171 223 202 264 67 90 137 176 206 264 126 160 284 374 409 525l2347 4c-19 38-1122 1334-1253 1496l-87 100c-22-10-3 1-20-17l-208-243c-98-113-302-344-382-446-98-126-268-308-378-443-24-30-51-60-75-88-54-61-101-120-153-179-184-206-425-497-605-711l-151-176c-25-28-47-58-74-88-25-27-53-60-78-91l-301-357-1477 4c10 30 663 771 780 911 24 30 45 56 72 85l574 668c24 25 46 55 69 81 28 30 48 54 73 84 48 59 98 109 145 168 23 29 45 51 70 80l432 503c102 128 242 278 356 415l429 499c27 30 48 54 72 84l143 164c152 187 358 441 583 508 352 104 560-244 747-464 94-111 184-229 279-342 190-228 368-450 556-678l839-1024c113-142 315-372 418-509 257-342 170-853-248-1016-99-39-161-32-274-32l-3724-4c-96 0-219-6-313 1z"/><path fill="#333" d="M8932 2661l-3-519c249 0 454-31 455 258 1 301-245 261-452 261zm-1-1318c94 0 220-11 299 24 71 31 109 116 106 218-7 254-183 236-407 236l2-478zm551 625c138-57 224-161 243-346 25-241-52-522-304-577-165-37-673-23-862-23v1980c212 0 429 4 641-1 219-6 364-39 461-171 97-130 141-311 103-511-50-269-223-303-282-351zm3652-391l530 1425h346l-1-1980h-297l-3 1222-448-1222-428 3v1977h298zm-2302 629c-8 154-14 441-197 470-317 49-268-631-256-865 6-124 15-278 71-373 83-138 240-101 292-28 114 163 101 568 90 796zm406-50c31-495-58-1054-494-1150-273-60-494 57-597 210-120 177-161 397-175 651-29 499 58 1060 502 1152 118 25 254 14 359-27 316-125 385-508 405-836zm3608-704l173 801-345-1 172-800zm-331 1549c11-68 29-139 43-208 4-18 32-194 52-200h484l87 409h395l-502-1980-387 1-527 1979 355-1zm-2545-1548l173 801-345-2 172-799zm-244 1140h483c21 6 68 278 76 314 8 34 13 91 31 95h384l-503-1980-387 2-526 1978h354l88-409z"/><path fill="#017046" d="M1744 2060c-18-38-209-239-244-283-67-82-176-194-243-278l-244-276c-21-21-25-27-41-47l-125-139c-31-37-45-24-148-24-232 0-467-4-699 1 9 21 819 813 957 948 139 138 35 97 432 98 118 0 237 2 355 0z"/><path fill="#333" d="M9228 3913c39 141 89 444 124 616 8 36 14 69 21 106 23 116-13 91 195 90l170-812-24 813 224-1V3684h-330l-129 613-122-613h-334v1042h225l-20-813z"/><path fill="#017046" d="M391 21c15 28 323 379 374 441 14 16 21 27 47 30l1474 16c-12-22-50-59-69-82L1869 22c-29-32-54-20-129-19-50 0-100 1-151 2-399 5-799 6-1198 16z"/><path fill="#333" d="M11093 4538v-256c112 1 183 0 181 124-1 139-56 127-181 132zm0-667h44c101 0 129 29 119 134-9 88-75 86-163 89v-223zm312 283c126-90 111-320 8-406-56-48-159-64-251-64-83 0-229-8-305 2v1038c90 10 235 2 330 2 112 0 190-19 251-81 84-86 98-317 31-395-42-49-41-38-79-66-6-5-7-6-11-10l26-20zm2619-279c38-12 108-6 139 12 32 19 40 68 39 118-2 119-61 136-178 121v-251zm285 337c27-31 58-28 89-75 24-37 34-76 37-126 17-249-102-327-326-327h-321v1042h236l1-409c263-35 134 184 189 409h258c-4-33-18-26-24-63-9-51-11-181-15-238-7-124-11-181-124-213zm-3978 251c-8-50-3-368-3-445 0-64-1-149 60-167 84-25 114 28 120 98 11 132 1 308 2 445 0 70-2 148-60 165-78 23-109-34-119-96zm-238-19c8 136 59 236 158 278 107 45 274 40 367-14 92-54 126-163 128-308 1-142 3-291-1-433-8-377-400-333-523-263-98 55-130 155-130 307 0 139-7 296 1 433zm5185-568l63 465-134-1 71-464zm-98 648l187 2 32 200h240l-218-1042-286 2-220 1040 238-2 27-200zm-1902-184c-1-34 59-440 69-464l63 465-132-1zm-29 184c211 0 185-16 194 46l25 156h240l-219-1042-286 2-219 1040 238-3 27-199zm-1230 202h525v-208l-266 1-23-2v-833h-236zm634 0h214l23-3V3687l-23-3h-214zm-1002 0h213l23-2V3686l-23-2h-213zm2934 0h213l23-3V3686l-23-2h-213v77zm-5946 0h236V3684h-236zm4583-1144c51 0 104 2 154 0 38-1 32-6 53-25l81-70c15-13 22-23 38-36 17-14 25-19 41-35 16-17 26-21 38-39h-252c-31 0-29 10-53 48-27 41-87 125-100 157z"/></g></svg>