<?xml version="1.0" encoding="iso-8859-1"?>
<!-- Uploaded to: SVG Repo, www.svgrepo.com, Generator: SVG Repo Mixer Tools -->
<svg fill="#000000" height="800px" width="800px" version="1.1" id="Layer_1" xmlns="http://www.w3.org/2000/svg" xmlns:xlink="http://www.w3.org/1999/xlink" 
	 viewBox="0 0 512.001 512.001" xml:space="preserve">
<g>
	<g>
		<path d="M375.155,88.108h-57.409c-9.195,0-16.65,7.455-16.65,16.65v97.437c-0.809-1.866-1.964-3.62-3.49-5.145
			c-4.524-4.524-132.153-132.153-134.591-134.591c-6.501-6.501-17.044-6.501-23.547,0C137.041,64.886,9.4,192.527,4.877,197.05
			c-6.503,6.501-6.503,17.044,0,23.547c6.501,6.501,17.044,6.501,23.547,0l6.265-6.265v73.58h-16.65
			c-9.195,0-16.65,7.455-16.65,16.65v66.602c0,9.195,7.455,16.65,16.65,16.65h52.815c-1.848,5.212-2.864,10.814-2.864,16.65
			c0,27.543,22.408,49.951,49.951,49.951s49.951-22.408,49.951-49.951c0-5.837-1.016-11.439-2.864-16.65H348.36
			c-1.848,5.212-2.864,10.814-2.864,16.65c0,27.543,22.408,49.951,49.951,49.951c34.449,0,58.577-34.207,47.087-66.602
			c10.964,0,8.605,0,19.514,0c27.543,0,49.951-22.408,49.951-49.951V224.953C512.001,149.549,450.665,88.108,375.155,88.108z
			 M67.99,181.032l83.252-83.252l83.252,83.252v106.881h-33.301v-49.951c0-27.543-22.408-49.951-49.951-49.951
			c-27.543,0-49.951,22.408-49.951,49.951v49.951H67.99V181.032z M167.892,237.962v49.951h-33.301v-49.951
			c0-9.181,7.469-16.65,16.65-16.65S167.892,228.781,167.892,237.962z M117.941,421.116c-9.181,0-16.65-7.469-16.65-16.65
			s7.469-16.65,16.65-16.65s16.65,7.468,16.65,16.65C134.591,413.647,127.122,421.116,117.941,421.116z M301.095,354.514H34.689
			v-33.301c10.208,0,247.704,0,266.406,0V354.514z M301.095,287.913h-33.301v-73.58l6.265,6.265
			c6.503,6.503,17.044,6.501,23.546-0.001c1.526-1.526,2.68-3.279,3.49-5.145V287.913z M400.998,124.673
			c43.502,11.217,76.012,50.07,77.631,96.638h-77.631V124.673z M395.448,421.116c-9.181,0-16.65-7.469-16.65-16.65
			s7.469-16.65,16.65-16.65s16.65,7.469,16.65,16.65S404.629,421.116,395.448,421.116z M478.7,287.913h-16.65
			c-9.195,0-16.65,7.455-16.65,16.65c0,9.195,7.455,16.65,16.65,16.65h16.65v16.65c0,9.181-7.469,16.65-16.65,16.65
			c-14.555,0-113.874,0-127.653,0V121.409h33.301v116.553c0,9.195,7.455,16.65,16.65,16.65H478.7V287.913z"/>
	</g>
</g>
</svg>