<?xml version="1.0" encoding="iso-8859-1"?>
<!-- Uploaded to: SVG Repo, www.svgrepo.com, Generator: SVG Repo Mixer Tools -->
<svg fill="#000000" height="800px" width="800px" version="1.1" id="Layer_1" xmlns="http://www.w3.org/2000/svg" xmlns:xlink="http://www.w3.org/1999/xlink" 
	 viewBox="0 0 512.001 512.001" xml:space="preserve">
<g>
	<g>
		<path d="M461.369,156.643l-22.411,4.458L301.06,60.672c0.853-3.301,1.307-6.761,1.307-10.324c0-22.773-18.527-41.3-41.3-41.3
			c-22.773,0-41.3,18.527-41.3,41.3c0,4.983,0.888,9.763,2.512,14.19L20.365,244.365L0,248.416l50.632,254.536l461.369-91.772
			L461.369,156.643z M261.067,39.447c6.011,0,10.901,4.89,10.901,10.901c0,6.011-4.89,10.901-10.901,10.901
			s-10.901-4.89-10.901-10.901C250.166,44.338,255.056,39.447,261.067,39.447z M242.511,87.229c5.583,2.821,11.884,4.42,18.556,4.42
			c8.115,0,15.683-2.362,22.074-6.42l115.258,83.94l-319.181,63.49L242.511,87.229z M35.746,272.3l401.738-79.911l38.769,194.907
			L74.515,467.207L35.746,272.3z"/>
	</g>
</g>
<g>
	<g>
		<polygon points="357.222,376.283 332.875,253.883 303.059,259.813 312.623,307.886 250.435,264.285 274.783,386.686 
			304.599,380.756 295.035,332.682 		"/>
	</g>
</g>
<g>
	<g>
		<polygon points="434.761,264.551 428.829,234.736 347.652,250.883 353.583,280.698 379.264,275.59 396.545,362.466 
			426.36,356.535 409.08,269.659 		"/>
	</g>
</g>
<g>
	<g>
		<polygon points="254.074,359.87 202.654,370.098 199.938,356.447 224.466,351.568 218.535,321.753 194.008,326.631 
			191.293,312.98 242.713,302.752 236.782,272.936 155.548,289.096 178.77,405.844 260.006,389.685 		"/>
	</g>
</g>
<g>
	<g>
		<path d="M159.611,387.542l-30.283-17.05l26.118-5.195l-14.576-73.282l-81.291,16.17l11.61,58.375l11.599,58.317l29.815-5.931
			l-5.149-25.882l37.241,20.968L159.611,387.542z M98.039,345.72l-2.716-13.651l21.662-4.309l2.716,13.651L98.039,345.72z"/>
	</g>
</g>
</svg>